<?xml version="1.0" encoding="utf-8"?>
<!-- Generator: Adobe Illustrator 24.2.0, SVG Export Plug-In . SVG Version: 6.00 Build 0)  -->
<svg version="1.1" id="Camada_1" xmlns="http://www.w3.org/2000/svg" xmlns:xlink="http://www.w3.org/1999/xlink" x="0px" y="0px"
	 viewBox="0 0 512 512" style="enable-background:new 0 0 512 512;" xml:space="preserve">
<style type="text/css">
	.st0{fill:#FF8100;}
</style>
<path class="st0" d="M472.4,39.6C446.9,14.1,413,0,376.9,0s-70,14.1-95.5,39.6L160.5,160.5l-120.9,121C14.1,307,0,340.9,0,377
	s14.1,70,39.6,95.5C65.1,497.9,99,512,135,512s70-14.1,95.5-39.6l120.9-120.9l120.9-121C497.9,205,512,171.1,512,135
	S497.9,65.1,472.4,39.6z M205.1,447c-18.7,18.7-43.6,29-70,29c-26.5,0-51.3-10.3-70-29s-29-43.6-29-70s10.3-51.3,29-70l108.2-108.2
	l140.1,140.1L205.1,447z M447,205.1L338.8,313.3L198.7,173.2L306.9,65c18.7-18.7,43.6-29,70-29c26.5,0,51.3,10.3,70,29
	s29,43.6,29,70S465.7,186.4,447,205.1z"/>
<path class="st0" d="M425.1,121.4c-5.7,0-11.4-2.7-14.9-7.8C401.8,101.3,387.9,94,373,94c-12,0-23.3,4.7-31.8,13.2
	c-7,7-18.4,7-25.5,0c-7-7-7-18.4,0-25.5C331,66.4,351.4,57.9,373,57.9c26.8,0,51.8,13.2,66.9,35.3c5.6,8.2,3.5,19.4-4.7,25
	C432.1,120.4,428.6,121.4,425.1,121.4z"/>
</svg>
