<?xml version="1.0" encoding="iso-8859-1"?>
<!-- Generator: Adobe Illustrator 21.0.0, SVG Export Plug-In . SVG Version: 6.00 Build 0)  -->
<svg xmlns="http://www.w3.org/2000/svg" xmlns:xlink="http://www.w3.org/1999/xlink" version="1.1" id="Capa_1" x="0px" y="0px" viewBox="0 0 511.961 511.961" style="enable-background:new 0 0 511.961 511.961;" xml:space="preserve" width="512px" height="512px">
<g>
	<path d="M436.49,208.494c-11.865-38.874-11.932-80.604-4.691-120.357c4.784-26.264,12.261-53.227,24.22-77.226   c4.341-8.644-9.063-15.374-13.404-6.731c-11.86,23.611-19.399,50.097-24.552,75.882c-6.861,34.331-8.444,69.942-2.56,104.539   c2.758,16.215,7.31,31.993,13.241,47.329c-39.992,13.169-82.81,19.338-124.688,22.321c-52.836,3.763-106.279,1.392-158.489-7.666   c-20.972-3.638-41.989-8.177-62.194-14.948c25.376-65.824,19.744-139.008-4.321-204.372c-2.874-7.807-5.928-15.64-9.664-23.084   c-4.34-8.639-17.735-1.917-13.407,6.728c12.738,25.376,20.436,54.209,25.067,82.078c7.258,43.669,5.012,88.416-10.478,130.12   c-7.976,21.472-18.978,41.488-30.285,61.344C10.971,335.93-16.717,384.556,12.403,504.344c2.279,9.38,16.861,5.859,14.575-3.543   c-20.749-85.353-11.92-131.462,6-170.625c6.146,0.565,27.528,3.265,56.463,14.987c31.671,12.831,79.152,39.419,125.497,93.221   c7.793,9.046,19.539,14.614,33.562,16.069v50.091c0,9.673,15,9.673,15,0v-50.162c12.816-1.553,24.626-7.033,33.183-15.59   c57.426-57.426,104.814-83.944,134.457-96.078c24.652-10.091,41.402-12.159,47.866-12.575   c17.932,39.171,26.772,85.281,6.016,170.66c-2.286,9.402,12.295,12.923,14.576,3.543c29.12-119.788,1.433-168.414-27.881-219.896   C458.955,262.034,445.757,238.857,436.49,208.494z M286.076,428.186c-7.412,7.413-18.374,11.664-30.075,11.664   c-12.711,0-23.535-4.103-29.697-11.256c-48.572-56.388-98.587-84.221-131.992-97.641c-24.642-9.899-43.983-13.656-54.296-15.068   c12.341-23.577,26.737-46.009,37.593-70.361c40.047,13.793,83.443,20.032,125.522,23.333c55.213,4.331,111.121,2.066,165.725-7.296   c22.141-3.796,44.354-8.546,65.665-15.74c10.812,24.186,25.107,46.483,37.38,69.905   C446.539,318.885,378.109,336.154,286.076,428.186z" fill="#FFAE00"/>
	<path d="M473.417,219.015c5.644,7.829,17.829-0.921,12.166-8.773c-29.494-40.9-15.966-97.675-15.804-98.334   c2.329-9.383-12.216-13.002-14.557-3.622C454.577,110.88,439.768,172.353,473.417,219.015z" fill="#FFAE00"/>
	<path d="M26.602,220.711c3.318,2.394,8.08,1.617,10.47-1.696c33.649-46.662,18.841-108.135,18.194-110.729   c-2.342-9.384-16.895-5.757-14.555,3.629c0.142,0.568,13.815,57.25-15.806,98.327C22.482,213.601,23.242,218.289,26.602,220.711z" fill="#FFAE00"/>
	<path d="M3.114,184.524c3.319,2.393,8.08,1.617,10.47-1.697c15.376-21.322,8.667-49.178,8.375-50.353   c-2.335-9.362-16.84-5.762-14.56,3.609c0.054,0.222,5.269,22.369-5.981,37.971C-1.005,177.413-0.246,182.101,3.114,184.524z" fill="#FFAE00"/>
	<path d="M504.506,185.941c5.99,0,9.577-7.035,6.077-11.887c-11.2-15.532-6.082-37.552-5.982-37.966   c2.316-9.38-12.219-12.989-14.559-3.613c-0.293,1.175-7.001,29.031,8.375,50.353C499.883,184.86,502.178,185.941,504.506,185.941z" fill="#FFAE00"/>
	<path d="M253.5,219.697c4.143,0,7.5-3.358,7.5-7.5v-25.639c0-9.673-15-9.673-15,0v25.639C246,216.34,249.358,219.697,253.5,219.697   z" fill="#FFAE00"/>
</g>















</svg>
