<?xml version="1.0"?>
<svg xmlns="http://www.w3.org/2000/svg" height="512px" viewBox="-1 0 512 512.00241" width="512px"><path d="m452.707031 348.058594c-4.035156 1.058594-6.453125 5.191406-5.390625 9.230468 3.746094 14.28125 6.359375 27.992188 7.894532 41.390626-24.171876-4.042969-57.277344-.351563-88.027344 10.210937-56.914063 19.542969-76.328125 50.804687-82.832032 67.699219-4.746093 12.328125-16.128906 20.292968-28.996093 20.292968h-1.402344c-12.863281 0-24.246094-7.964843-28.992187-20.292968-6.507813-16.894532-25.921876-48.15625-82.832032-67.699219-30.753906-10.5625-63.863281-14.253906-88.03125-10.207031 4.234375-37.289063 16.253906-71.496094 29.621094-104.484375 53.824219 27.019531 112.378906 40.539062 170.9375 40.539062 58.554688 0 117.105469-13.519531 170.929688-40.535156 4.59375 11.347656 9.0625 22.90625 13.09375 34.679687 1.074218 3.140626 4.007812 5.113282 7.148437 5.113282.8125 0 1.640625-.132813 2.449219-.410156 3.949218-1.351563 6.054687-5.648438 4.703125-9.597657-7.207031-21.058593-15.667969-41.230469-23.855469-60.734375-17.597656-41.941406-34.21875-81.558594-34.21875-120.789062 0-41.035156 14.460938-85.496094 29.773438-132.566406 1.289062-3.96875-.882813-8.234376-4.851563-9.527344-3.964844-1.289063-8.234375.882812-9.523437 4.851562-15.695313 48.246094-30.515626 93.8125-30.515626 137.242188 0 42.273437 17.195313 83.253906 35.398438 126.636718 1.535156 3.667969 3.085938 7.367188 4.632812 11.082032-103.933593 52.574218-226.398437 52.570312-330.332031 0 1.542969-3.695313 3.085938-7.382813 4.628907-11.058594 18.203124-43.394531 35.398437-84.378906 35.398437-126.660156 0-43.429688-14.820313-88.996094-30.515625-137.242188-1.289062-3.96875-5.554688-6.136718-9.523438-4.847656s-6.140624 5.554688-4.851562 9.523438c15.3125 47.074218 29.773438 91.535156 29.773438 132.566406 0 39.238281-16.625 78.859375-34.222657 120.808594-21.050781 50.183593-42.824219 102.074218-42.824219 163.589843 0 25.0625 1.722657 50.367188 5.109376 75.207031.519531 3.789063 3.757812 6.535157 7.480468 6.535157.339844 0 .683594-.023438 1.03125-.070313 4.136719-.5625 7.03125-4.375 6.464844-8.511718-3.296875-24.164063-4.96875-48.777344-4.96875-73.160157 0-4.226562.125-8.402343.335938-12.546875 21.554687-4.75 54.542968-1.386718 84.414062 8.871094 37.332031 12.824219 64.171875 34.265625 73.632812 58.839844 7.011719 18.210937 23.933594 29.976562 43.101563 29.976562h1.402344c19.167969 0 36.089843-11.765625 43.101562-29.976562 9.464844-24.570313 36.300781-46.015625 73.636719-58.839844 29.871094-10.257812 62.867188-13.621094 84.421875-8.867188.21875 4.199219.328125 8.378907.328125 12.542969 0 24.335938-1.675781 48.953125-4.980469 73.164063-.5625 4.132812 2.332031 7.945312 6.46875 8.507812.34375.046875.691407.070313 1.027344.070313 3.722656 0 6.964844-2.746094 7.480469-6.535157 3.398437-24.886718 5.121094-50.191406 5.121094-75.207031 0-23.699219-3.28125-47.714843-10.023438-73.410156-1.058594-4.039063-5.191406-6.453125-9.230469-5.394531zm0 0" fill="#FFAE00"/><path d="m254.65625 262.695312c4.171875 0 7.558594-3.386718 7.558594-7.558593v-39.367188c0-4.171875-3.386719-7.558593-7.558594-7.558593-4.175781 0-7.558594 3.386718-7.558594 7.558593v39.367188c0 4.171875 3.382813 7.558593 7.558594 7.558593zm0 0" fill="#FFAE00"/><path d="m504.265625 74.855469c-3.023437-1.066407-6.390625-.105469-8.398437 2.390625l-72.613282 90.183594c-2.230468 2.769531-2.230468 6.714843 0 9.480468l72.613282 90.1875c1.460937 1.816406 3.640624 2.820313 5.886718 2.820313.839844 0 1.6875-.140625 2.511719-.433594 3.023437-1.0625 5.042969-3.921875 5.042969-7.125v-180.375c0-3.203125-2.019532-6.0625-5.042969-7.128906zm-10.070313 166.0625-55.351562-68.746094 55.351562-68.746094zm0 0" fill="#FFAE00"/><path d="m86.070312 167.433594-20.582031-25.558594c-2.617187-3.25-7.375-3.765625-10.625-1.144531-3.253906 2.617187-3.765625 7.375-1.148437 10.625l16.761718 20.816406-55.359374 68.75v-137.5l19.652343 24.402344c2.617188 3.25 7.375 3.765625 10.625 1.144531 3.253907-2.617188 3.765625-7.375 1.148438-10.625l-33.097657-41.097656c-2.007812-2.5-5.375-3.457032-8.398437-2.390625-3.023437 1.066406-5.046875 3.925781-5.046875 7.128906v180.375c0 3.207031 2.023438 6.0625 5.046875 7.128906.824219.289063 1.671875.429688 2.511719.429688 2.242187 0 4.425781-1 5.886718-2.816407l72.621094-90.1875c2.230469-2.769531 2.230469-6.714843.003906-9.480468zm0 0" fill="#FFAE00"/></svg>
