<?xml version="1.0" encoding="utf-8"?>
<!-- Generator: Adobe Illustrator 24.2.1, SVG Export Plug-In . SVG Version: 6.00 Build 0)  -->
<svg version="1.1" id="Layer_1" xmlns="http://www.w3.org/2000/svg" xmlns:xlink="http://www.w3.org/1999/xlink" x="0px" y="0px"
	 viewBox="0 0 512 512" style="enable-background:new 0 0 512 512;" xml:space="preserve">
<style type="text/css">
	.st0{fill:#FF8100;}
</style>
<g>
	<path class="st0" d="M466,432H46c-25.4,0-46-20.6-46-46V126c0-25.4,20.6-46,46-46h420c25.4,0,46,20.6,46,46v260
		C512,411.4,491.4,432,466,432z M46,112c-7.7,0-14,6.3-14,14v260c0,7.7,6.3,14,14,14h420c7.7,0,14-6.3,14-14V126c0-7.7-6.3-14-14-14
		H46z"/>
	<path class="st0" d="M365.7,301.7c-3.5,0-7-1.1-9.9-3.4c-6.9-5.5-8.1-15.5-2.7-22.5c4.5-5.7,6.9-12.5,6.9-19.8s-2.4-14.1-6.9-19.8
		c-5.5-6.9-4.3-17,2.7-22.5c6.9-5.5,17-4.3,22.5,2.7c8.9,11.2,13.7,25.3,13.7,39.6c0,14.3-4.9,28.4-13.7,39.6
		C375.1,299.6,370.4,301.7,365.7,301.7L365.7,301.7z"/>
	<path class="st0" d="M405.4,341.4c-3.8,0-7.6-1.4-10.7-4.1c-6.6-5.9-7.1-16-1.2-22.6c14.5-16.2,22.5-37,22.5-58.7
		s-8-42.6-22.5-58.7c-5.9-6.6-5.4-16.7,1.2-22.6c6.6-5.9,16.7-5.4,22.6,1.2c19.8,22,30.7,50.5,30.7,80.1s-10.9,58.1-30.7,80.1
		C414.2,339.6,409.8,341.4,405.4,341.4L405.4,341.4z"/>
	<path class="st0" d="M124,256h-24c-19.9,0-36-16.1-36-36v-24c0-19.9,16.1-36,36-36h24c19.9,0,36,16.1,36,36v24
		C160,239.9,143.9,256,124,256z M100,192c-2.2,0-4,1.8-4,4v24c0,2.2,1.8,4,4,4h24c2.2,0,4-1.8,4-4v-24c0-2.2-1.8-4-4-4H100z"/>
</g>
</svg>
