<?xml version="1.0"?>
<svg xmlns="http://www.w3.org/2000/svg" height="512px" viewBox="0 0 512 512" width="512px"><g fill-rule="evenodd"><path d="m10 350.394531c5.523438 0 10-4.476562 10-10v-288.792969c0-17.425781 14.175781-31.601562 31.601562-31.601562h408.796876c17.421874 0 31.601562 14.175781 31.601562 31.601562v40c0 5.523438 4.476562 10 10 10s10-4.476562 10-10v-40c0-28.453124-23.148438-51.601562-51.605469-51.601562h-408.792969c-28.453124 0-51.601562 23.148438-51.601562 51.601562v288.792969c0 5.523438 4.476562 10 10 10zm0 0" fill="#FFAE00"/><path d="m502 161.601562c-5.523438 0-10 4.476563-10 10v288.792969c0 17.425781-14.179688 31.601563-31.605469 31.601563h-408.792969c-17.425781 0-31.601562-14.175782-31.601562-31.601563v-40c0-5.519531-4.476562-10-10-10s-10 4.480469-10 10v40c0 28.457031 23.148438 51.601563 51.601562 51.601563h408.796876c28.453124 0 51.601562-23.144532 51.601562-51.601563v-288.792969c0-5.523437-4.476562-10-10-10zm0 0" fill="#FFAE00"/><path d="m379.101562 210.5625c.4375 0 .878907-.03125 1.324219-.089844 2.628907-.351562 5.011719-1.730468 6.621094-3.839844l57.710937-75.554687c3.351563-4.386719 2.515626-10.660156-1.871093-14.011719-26.15625-20.011718-55.132813-35.597656-86.125-46.328125 0 0 0 0-.003907 0 0-.003906 0-.003906-.003906-.003906-32.328125-11.195313-66.226562-16.867187-100.753906-16.867187s-68.425781 5.675781-100.753906 16.867187c-.003906 0-.003906 0-.003906 0-.003907 0-.003907.003906-.003907.003906-30.992187 10.730469-59.96875 26.316407-86.128906 46.324219-4.382813 3.355469-5.21875 9.628906-1.871094 14.015625l57.714844 75.554687c1.609375 2.105469 3.992187 3.488282 6.625 3.839844 2.625.351563 5.289063-.355468 7.398437-1.96875 33.835938-25.886718 74.304688-39.566406 117.023438-39.566406s83.183594 13.679688 117.023438 39.566406c1.753906 1.339844 3.894531 2.058594 6.078124 2.058594zm-244.191406-23.839844-45.605468-59.707031c19.585937-13.945313 40.734374-25.320313 63.089843-33.941406l12.226563 35.3125c1.429687 4.136719 5.304687 6.730469 9.449218 6.730469 1.085938 0 2.1875-.175782 3.273438-.550782 5.21875-1.808594 7.984375-7.503906 6.175781-12.722656l-12.222656-35.304688c24.179687-7.433593 49.226563-11.621093 74.703125-12.492187v37.351563c0 5.523437 4.476562 10 10 10s10-4.476563 10-10v-37.347657c25.476562.867188 50.523438 5.054688 74.703125 12.492188l-12.222656 35.300781c-1.808594 5.21875.957031 10.914062 6.175781 12.722656 1.082031.375 2.1875.554688 3.273438.554688 4.140624 0 8.015624-2.597656 9.449218-6.730469l12.226563-35.316406c22.351562 8.621093 43.5 20 63.089843 33.941406l-45.609374 59.707031c-35.640626-24.753906-77.292969-37.785156-121.085938-37.785156s-85.445312 13.027344-121.089844 37.785156zm0 0" fill="#FFAE00"/><path d="m256 237.160156c-4.453125 0-8.367188 2.941406-9.605469 7.21875l-56.914062 196.5625c-.875 3.019532-.277344 6.273438 1.609375 8.789063 1.890625 2.511719 4.851562 3.992187 7.992187 3.992187h113.832031.019532c5.523437 0 10-4.476562 10-10 0-1.199218-.210938-2.347656-.597656-3.414062l-56.730469-195.929688c-1.238281-4.277344-5.152344-7.21875-9.605469-7.21875zm-43.609375 196.5625 43.609375-150.609375 43.609375 150.609375zm0 0" fill="#FFAE00"/><path d="m10 390.398438c5.507812 0 10-4.496094 10-10.003907 0-5.507812-4.492188-10-10-10s-10 4.492188-10 10c0 5.507813 4.492188 10.003907 10 10.003907zm0 0" fill="#FFAE00"/><path d="m502 121.601562c-5.507812 0-10 4.492188-10 10 0 5.507813 4.492188 10 10 10s10-4.492187 10-10c0-5.507812-4.492188-10-10-10zm0 0" fill="#FFAE00"/></g></svg>
