<?xml version="1.0"?>
<svg xmlns="http://www.w3.org/2000/svg" id="Capa_1" enable-background="new 0 0 512 512" height="512px" viewBox="0 0 512 512" width="512px"><g><g><path d="m69.175 387.144c-23.563-63.027-23.874-130.472-23.875-131.144 0-73.72 59.88-133.714 133.559-133.915 27.395 19.795 58.218 23.597 73.41 24.162-2.144 12.462-3.069 22.603-3.466 29.107-18.69-2.176-26.873-12.321-27.209-12.748-2.486-3.314-7.186-3.984-10.5-1.5-3.313 2.485-3.985 7.187-1.5 10.5.587.782 14.736 19.163 46.407 19.163s45.82-18.381 46.407-19.163c2.485-3.313 1.837-8.046-1.477-10.53-3.315-2.486-7.992-1.846-10.477 1.469-.373.476-8.37 10.397-26.597 12.731.54-7.99 1.905-21.388 5.331-37.517.006-.003.011-.005.017-.008 19.531-10.397 40.917-15.67 63.565-15.67 55.121 0 105.397 34.566 125.106 86.013 1.144 2.986 3.988 4.819 7.005 4.819.892 0 1.799-.16 2.682-.498 3.868-1.482 5.802-5.819 4.32-9.687-10.665-27.839-29.263-51.628-53.783-68.796-25.089-17.566-54.596-26.852-85.33-26.852-20.366 0-40.485 4.08-58.885 11.855 9.106-31.607 28.164-75.003 67.523-105.507 3.274-2.537 3.871-7.248 1.334-10.522-2.538-3.273-7.247-3.871-10.522-1.333-30.175 23.385-53.418 57.021-67.874 97.974-4.54-17.916-13.581-39.005-31.423-56.846-39.25-39.25-94.219-35.907-96.539-35.751-3.732.26-6.703 3.23-6.962 6.962-.158 2.273-3.356 55.033 33.374 94.08-74.415 8.206-132.496 71.448-132.496 148.008 0 2.858.282 70.751 24.825 136.396 1.127 3.014 3.986 4.875 7.026 4.875.873 0 1.76-.153 2.625-.477 3.88-1.45 5.85-5.771 4.399-9.65zm153.141-333.836c26.688 26.687 30.872 62.909 31.398 77.935-15.024-.526-51.248-4.712-77.935-31.399-26.691-26.691-30.874-62.92-31.398-77.935 15.024.526 51.247 4.712 77.935 31.399z" fill="#FFAE00"/><path d="m480.679 238.467c-.482-4.113-4.203-7.043-8.322-6.576-4.114.482-7.058 4.209-6.576 8.322.61 5.202.919 10.514.919 15.785 0 .612-.271 61.905-20.673 122.165-26.677 78.797-73.574 118.779-139.378 118.837-1.496-.062-18.975-.893-34.148-6.521-10.641-3.951-22.36-3.95-32.999-.001-15.187 5.634-32.678 6.462-34.148 6.522-53.193-.045-94.335-26.572-122.289-78.847-1.954-3.652-6.497-5.029-10.15-3.077-3.653 1.954-5.03 6.498-3.077 10.151 13.967 26.118 31.329 46.67 51.604 61.084 23.976 17.047 52.254 25.689 84.048 25.689.079 0 .157-.001.236-.004.843-.026 20.853-.726 38.994-7.455 7.274-2.701 15.286-2.702 22.562.001 18.14 6.729 38.149 7.428 38.993 7.454.078.003.157.004.235.004 40.293 0 74.684-13.792 102.217-40.993 21.704-21.441 39.071-51.17 51.619-88.359 21.112-62.572 21.354-124.061 21.354-126.648 0-5.854-.343-11.753-1.021-17.533z" fill="#FFAE00"/></g></g></svg>
