<?xml version="1.0" encoding="utf-8"?>
<!-- Generator: Adobe Illustrator 24.2.1, SVG Export Plug-In . SVG Version: 6.00 Build 0)  -->
<svg version="1.1" id="Layer_1" xmlns="http://www.w3.org/2000/svg" xmlns:xlink="http://www.w3.org/1999/xlink" x="0px" y="0px"
	 viewBox="0 0 512 512" style="enable-background:new 0 0 512 512;" xml:space="preserve">
<style type="text/css">
	.st0{fill:#FF8100;}
</style>
<path class="st0" d="M442.9,85.4H69.1C31,85.4,0,116.4,0,154.5v202.9c0,38.1,31,69.1,69.1,69.1h373.8c38.1,0,69.1-31,69.1-69.1
	V154.5C512,116.4,481,85.4,442.9,85.4z M69.1,127.5h373.8c14.9,0,27,12.1,27,27v16.4H42.1v-16.4C42.1,139.6,54.2,127.5,69.1,127.5
	L69.1,127.5z M442.9,384.5H69.1c-14.9,0-27-12.1-27-27V212.9h427.9v144.5C469.9,372.4,457.8,384.5,442.9,384.5z"/>
<path class="st0" d="M127.8,267h-32c-11.6,0-21,9.4-21,21s9.4,21,21,21h32c11.6,0,21-9.4,21-21S139.4,267,127.8,267z"/>
</svg>
